<?xml version="1.0" encoding="UTF-8"?>
<!DOCTYPE svg PUBLIC "-//W3C//DTD SVG 1.1//EN" "http://www.w3.org/Graphics/SVG/1.1/DTD/svg11.dtd">
<!-- Creator: CorelDRAW 2020 (64-Bit) -->
<svg xmlns="http://www.w3.org/2000/svg" xml:space="preserve" width="3.3866mm" height="2.9558mm" version="1.1" style="shape-rendering:geometricPrecision; text-rendering:geometricPrecision; image-rendering:optimizeQuality; fill-rule:evenodd; clip-rule:evenodd"
viewBox="0 0 2.72 2.38"
 xmlns:xlink="http://www.w3.org/1999/xlink"
 xmlns:xodm="http://www.corel.com/coreldraw/odm/2003">
 <defs>
  <style type="text/css">
   <![CDATA[
    .fil0 {fill:#FFAB00;fill-rule:nonzero}
   ]]>
  </style>
 </defs>
 <g id="Слой_x0020_1">
  <metadata id="CorelCorpID_0Corel-Layer"/>
  <g id="_681473536">
   <path class="fil0" d="M2.68 0l-1.96 0.55c-0.04,0.01 -0.04,0.04 -0.01,0.06l0.43 0.28c0.03,0.02 0.03,0.05 -0.01,0.07l-1.06 0.43c-0.04,0.01 -0.04,0.03 0,0.04l0.94 0.23c0.04,0.01 0.04,0.03 0.01,0.05l-1.01 0.59c-0.03,0.02 -0.01,0.08 0.03,0.08l2.25 -0.53c0.04,-0.01 0.04,-0.04 0.01,-0.06l-0.54 -0.41c-0.03,-0.02 -0.03,-0.06 0.01,-0.07l0.88 -0.4c0.04,-0.02 0.03,-0.04 -0,-0.05l-0.68 -0.21c-0.04,-0.01 -0.04,-0.04 -0.01,-0.06l0.74 -0.52c0.03,-0.02 0.02,-0.06 -0.02,-0.05zm-0.38 0.21l-0.57 0.4c-0.03,0.02 -0.03,0.05 0.01,0.06l0.62 0.19c0.04,0.01 0.04,0.03 0,0.05l-0.79 0.36c-0.04,0.02 -0.04,0.05 -0.01,0.07l0.5 0.38c0.03,0.02 0.03,0.05 -0.01,0.06l-1.58 0.39c-0.04,0.01 -0.04,0 -0.01,-0.02l0.85 -0.5c0.03,-0.02 0.03,-0.04 -0.01,-0.05l-0.87 -0.21c-0.04,-0.01 -0.04,-0.03 -0,-0.04l0.94 -0.38c0.04,-0.01 0.04,-0.04 0.01,-0.07l-0.41 -0.27c-0.03,-0.02 -0.03,-0.05 0.01,-0.06l1.32 -0.39c0.04,-0.01 0.04,-0 0.01,0.02z"/>
   <path class="fil0" d="M2.39 1.25c-0.12,0 -0.22,0.07 -0.25,0.17 -0,0.01 -0.01,0.04 0.01,0.07 0.01,0.02 0.04,0.03 0.07,0.03l0.33 0c0.05,0 0.07,-0.02 0.08,-0.03 0.01,-0.02 0.02,-0.05 0.01,-0.08 -0.03,-0.1 -0.13,-0.15 -0.25,-0.15zm0.15 0.18l-0.3 0c-0.02,0 -0.01,-0.01 -0.01,-0.02 0.03,-0.05 0.08,-0.08 0.16,-0.08 0.07,0 0.13,0.03 0.16,0.08 0,0 0.01,0.01 -0.01,0.01z"/>
   <path class="fil0" d="M0.32 1.02l0.33 0c0.05,0 0.07,-0.02 0.08,-0.03 0.01,-0.02 0.02,-0.05 0.01,-0.08 -0.03,-0.1 -0.13,-0.15 -0.25,-0.15 -0.12,0 -0.22,0.07 -0.25,0.17 -0,0.01 -0.01,0.04 0.01,0.07 0.01,0.02 0.04,0.03 0.07,0.03zm0.02 -0.11c0.03,-0.05 0.08,-0.07 0.15,-0.07 0.07,0 0.13,0.03 0.15,0.07 0,0.01 0.01,0.02 -0.01,0.02l-0.29 0c-0.02,0 -0.01,-0.01 -0.01,-0.02z"/>
  </g>
 </g>
</svg>
