<svg width="12" height="18" viewBox="0 0 12 18" fill="none" xmlns="http://www.w3.org/2000/svg">
<path fill-rule="evenodd" clip-rule="evenodd" d="M6.00019 17.7501C6.16595 17.7501 6.32492 17.6843 6.44213 17.5671C6.55934 17.4499 6.62519 17.2909 6.62519 17.1251L6.62519 2.38389L10.5577 6.31764C10.6158 6.37575 10.6848 6.42185 10.7607 6.45329C10.8366 6.48474 10.918 6.50093 11.0002 6.50093C11.0824 6.50093 11.1637 6.48474 11.2397 6.45329C11.3156 6.42185 11.3846 6.37575 11.4427 6.31764C11.5008 6.25953 11.5469 6.19054 11.5783 6.11462C11.6098 6.0387 11.626 5.95732 11.626 5.87514C11.626 5.79296 11.6098 5.71159 11.5783 5.63566C11.5469 5.55974 11.5008 5.49075 11.4427 5.43264L6.44269 0.432641C6.38463 0.374437 6.31566 0.328258 6.23973 0.29675C6.1638 0.265242 6.0824 0.249023 6.00019 0.249023C5.91798 0.249023 5.83658 0.265242 5.76065 0.29675C5.68471 0.328258 5.61574 0.374437 5.55769 0.432641L0.557686 5.43264C0.499577 5.49075 0.453481 5.55974 0.422032 5.63566C0.390583 5.71159 0.374397 5.79296 0.374397 5.87514C0.374397 5.95732 0.390583 6.0387 0.422032 6.11462C0.453481 6.19054 0.499577 6.25953 0.557686 6.31764C0.615796 6.37575 0.684783 6.42185 0.760707 6.45329C0.836631 6.48474 0.918007 6.50093 1.00019 6.50093C1.08237 6.50093 1.16374 6.48474 1.23967 6.45329C1.31559 6.42185 1.38458 6.37575 1.44269 6.31764L5.37519 2.38389L5.37519 17.1251C5.37519 17.2909 5.44103 17.4499 5.55824 17.5671C5.67545 17.6843 5.83443 17.7501 6.00019 17.7501Z" fill="#FFAB00"/>
</svg>
